<svg xmlns="http://www.w3.org/2000/svg" width="22" height="23" viewBox="0 0 22 23" fill="none">
    <g clip-path="url(#clip0_2_488)">
      <mask id="mask0_2_488" style="mask-type:luminance" maskUnits="userSpaceOnUse" x="0" y="0" width="22" height="23">
        <path d="M22 0.75H0V22.75H22V0.75Z" fill="white"/>
      </mask>
      <g mask="url(#mask0_2_488)">
        <path d="M11 22.7519C17.0751 22.7519 22 17.8271 22 11.7519C22 5.67682 17.0751 0.751953 11 0.751953C4.92487 0.751953 0 5.67682 0 11.7519C0 17.8271 4.92487 22.7519 11 22.7519Z" fill="white"/>
        <path d="M15.2824 14.9316L15.7697 11.7511H12.7192V9.68756C12.7192 8.8182 13.1446 7.96897 14.512 7.96897H15.8996V5.26189C15.8996 5.26189 14.6404 5.04688 13.437 5.04688C10.9248 5.04688 9.28198 6.56902 9.28198 9.32714V11.7511H6.48828V14.9316H9.28198V22.6181C9.84196 22.7063 10.4159 22.7511 11.0006 22.7511C11.5853 22.7511 12.1592 22.7047 12.7192 22.6181V14.9316H15.2824Z" fill="#151824"/>
      </g>
    </g>
    <defs>
      <clipPath id="clip0_2_488">
        <rect width="22" height="22" fill="white" transform="translate(0 0.75)"/>
      </clipPath>
    </defs>
  </svg>