<svg xmlns="http://www.w3.org/2000/svg" width="22" height="23" viewBox="0 0 22 23" fill="none">
    <g clip-path="url(#clip0_2_517)">
      <mask id="mask0_2_517" style="mask-type:luminance" maskUnits="userSpaceOnUse" x="0" y="0" width="22" height="23">
        <path d="M22 0.75H0V22.75H22V0.75Z" fill="white"/>
      </mask>
      <g mask="url(#mask0_2_517)">
        <path fill-rule="evenodd" clip-rule="evenodd" d="M11 22.75C17.0751 22.75 22 17.8251 22 11.75C22 5.67487 17.0751 0.75 11 0.75C4.92487 0.75 0 5.67487 0 11.75C0 17.8251 4.92487 22.75 11 22.75Z" fill="white"/>
        <path fill-rule="evenodd" clip-rule="evenodd" d="M18.0265 18.1671H15.2641V13.4621C15.2641 12.1721 14.7739 11.4512 13.7529 11.4512C12.6421 11.4512 12.0618 12.2014 12.0618 13.4621V18.1671H9.39962V9.20414H12.0618V10.4114C12.0618 10.4114 12.8623 8.93031 14.7643 8.93031C16.6654 8.93031 18.0265 10.0912 18.0265 12.4923V18.1671ZM6.22364 8.03051C5.31684 8.03051 4.58203 7.28994 4.58203 6.37658C4.58203 5.46323 5.31684 4.72266 6.22364 4.72266C7.13044 4.72266 7.8648 5.46323 7.8648 6.37658C7.8648 7.28994 7.13044 8.03051 6.22364 8.03051ZM4.84899 18.1671H7.62497V9.20414H4.84899V18.1671Z" fill="#151824"/>
      </g>
    </g>
    <defs>
      <clipPath id="clip0_2_517">
        <rect width="22" height="22" fill="white" transform="translate(0 0.75)"/>
      </clipPath>
    </defs>
  </svg>