<svg xmlns="http://www.w3.org/2000/svg" width="22" height="23" viewBox="0 0 22 23" fill="none">
    <g clip-path="url(#clip0_2_531)">
      <mask id="mask0_2_531" style="mask-type:luminance" maskUnits="userSpaceOnUse" x="0" y="0" width="22" height="23">
        <path d="M22 0.75H0V22.75H22V0.75Z" fill="white"/>
      </mask>
      <g mask="url(#mask0_2_531)">
        <path fill-rule="evenodd" clip-rule="evenodd" d="M11 22.75C17.0751 22.75 22 17.8251 22 11.75C22 5.67487 17.0751 0.75 11 0.75C4.92487 0.75 0 5.67487 0 11.75C0 17.8251 4.92487 22.75 11 22.75Z" fill="white"/>
        <path d="M17.4096 7.93374C16.9531 8.13456 16.4623 8.27023 15.9474 8.33126C16.473 8.01883 16.8768 7.52411 17.0668 6.93458C16.5748 7.22393 16.03 7.43397 15.45 7.54718C14.9857 7.05652 14.324 6.75 13.5917 6.75C12.1857 6.75 11.0457 7.88028 11.0457 9.27444C11.0457 9.47231 11.0682 9.665 11.1116 9.84976C8.99564 9.74449 7.11967 8.73942 5.86394 7.21205C5.64479 7.5849 5.5192 8.01853 5.5192 8.4812C5.5192 9.35707 5.96868 10.1298 6.65183 10.5825C6.23449 10.5694 5.84191 10.4558 5.49866 10.2667C5.49837 10.2772 5.49837 10.2878 5.49837 10.2985C5.49837 11.5216 6.37598 12.5419 7.54069 12.7739C7.32706 12.8316 7.10213 12.8625 6.86995 12.8625C6.70589 12.8625 6.54643 12.8466 6.39094 12.8172C6.71495 13.8201 7.65517 14.55 8.76931 14.5703C7.89797 15.2474 6.80021 15.651 5.60733 15.651C5.40182 15.651 5.19918 15.639 5 15.6157C6.12674 16.3321 7.46499 16.75 8.90278 16.75C13.5857 16.75 16.1467 12.9033 16.1467 9.56712C16.1467 9.45766 16.1442 9.34882 16.1393 9.24048C16.6367 8.88462 17.0683 8.44003 17.4096 7.93374Z" fill="#151824"/>
      </g>
    </g>
    <defs>
      <clipPath id="clip0_2_531">
        <rect width="22" height="22" fill="white" transform="translate(0 0.75)"/>
      </clipPath>
    </defs>
  </svg>