<svg xmlns="http://www.w3.org/2000/svg" width="22" height="23" viewBox="0 0 22 23" fill="none">
    <g clip-path="url(#clip0_2_474)">
      <mask id="mask0_2_474" style="mask-type:luminance" maskUnits="userSpaceOnUse" x="0" y="0" width="22" height="23">
        <path d="M22 0.75H0V22.75H22V0.75Z" fill="white"/>
      </mask>
      <g mask="url(#mask0_2_474)">
        <path d="M11.0021 22.6565C17.0266 22.6565 21.9104 17.7727 21.9104 11.7482C21.9104 5.72367 17.0266 0.839844 11.0021 0.839844C4.97758 0.839844 0.09375 5.72367 0.09375 11.7482C0.09375 17.7727 4.97758 22.6565 11.0021 22.6565Z" fill="white"/>
        <path d="M11.0027 5.27734C9.24634 5.27734 9.02268 5.28468 8.33334 5.31768C7.64401 5.35068 7.17468 5.45701 6.76401 5.61834C6.33868 5.78334 5.97568 6.00334 5.61634 6.36634C5.25701 6.72568 5.03701 7.08868 4.86834 7.51401C4.70701 7.92468 4.59701 8.39768 4.56768 9.08334C4.53834 9.77268 4.52734 9.99268 4.52734 11.7527C4.52734 13.509 4.53468 13.729 4.56768 14.422C4.60068 15.1113 4.70701 15.5807 4.86834 15.9913C5.03334 16.4167 5.25334 16.7797 5.61634 17.139C5.97568 17.4983 6.33868 17.722 6.76401 17.887C7.17468 18.0483 7.64768 18.1547 8.33334 18.1877C9.02268 18.2207 9.24268 18.228 11.0027 18.228C12.759 18.228 12.979 18.2207 13.672 18.1877C14.3613 18.1547 14.8307 18.0483 15.245 17.887C15.6703 17.722 16.0297 17.4983 16.389 17.139C16.7483 16.7797 16.9683 16.4167 17.137 15.9913C17.2947 15.5807 17.4047 15.1113 17.4377 14.422C17.467 13.7327 17.478 13.5127 17.478 11.7527C17.478 9.99635 17.4707 9.77635 17.4377 9.08334C17.4047 8.39401 17.2947 7.92468 17.137 7.51401C16.972 7.08868 16.7483 6.72568 16.389 6.36634C16.0297 6.00701 15.6703 5.78701 15.2413 5.61834C14.827 5.45701 14.3577 5.35068 13.6683 5.31768C12.979 5.28468 12.759 5.27734 11.0027 5.27734ZM10.4233 6.44334C10.5957 6.44334 10.7863 6.44334 11.0027 6.44334C12.7297 6.44334 12.935 6.45068 13.617 6.48001C14.2477 6.50934 14.5887 6.61568 14.8197 6.70368C15.1203 6.82101 15.3367 6.96034 15.564 7.18768C15.7913 7.41501 15.9307 7.63134 16.048 7.93201C16.136 8.15934 16.2423 8.50401 16.2717 9.13468C16.301 9.81668 16.3083 10.022 16.3083 11.749C16.3083 13.476 16.301 13.6813 16.2717 14.3633C16.2423 14.994 16.136 15.335 16.048 15.566C15.9307 15.8667 15.7913 16.083 15.564 16.3103C15.3367 16.5377 15.124 16.677 14.8197 16.7943C14.5923 16.8823 14.2477 16.9887 13.617 17.018C12.935 17.0473 12.7297 17.0547 11.0027 17.0547C9.27568 17.0547 9.07034 17.0473 8.38834 17.018C7.75768 16.9887 7.41668 16.8823 7.18568 16.7943C6.88501 16.677 6.66868 16.5377 6.44134 16.3103C6.21401 16.083 6.07468 15.8667 5.95734 15.566C5.86934 15.3387 5.76301 14.994 5.73368 14.3633C5.70434 13.6813 5.69701 13.476 5.69701 11.749C5.69701 10.022 5.70434 9.81668 5.73368 9.13468C5.76301 8.50401 5.86934 8.16301 5.95734 7.93201C6.07468 7.63134 6.21401 7.41501 6.44134 7.18768C6.66868 6.96034 6.88501 6.82101 7.18568 6.70368C7.41301 6.61568 7.75768 6.50934 8.38834 6.48001C8.98601 6.45068 9.21701 6.44334 10.4233 6.44334ZM14.4567 7.51768C14.0277 7.51768 13.6793 7.86601 13.6793 8.29501C13.6793 8.72401 14.0277 9.07234 14.4567 9.07234C14.8857 9.07234 15.234 8.72401 15.234 8.29501C15.234 7.86601 14.8857 7.51768 14.4567 7.51768ZM11.0027 8.42701C9.16568 8.42701 7.68068 9.91568 7.68068 11.749C7.68068 13.586 9.16934 15.071 11.0027 15.071C12.8397 15.071 14.3247 13.5823 14.3247 11.749C14.3247 9.91201 12.8397 8.42701 11.0027 8.42701ZM11.0027 9.59301C12.1943 9.59301 13.1587 10.5573 13.1587 11.749C13.1587 12.9407 12.1943 13.905 11.0027 13.905C9.81101 13.905 8.84668 12.9407 8.84668 11.749C8.84668 10.5573 9.81101 9.59301 11.0027 9.59301Z" fill="#151824"/>
      </g>
    </g>
    <defs>
      <clipPath id="clip0_2_474">
        <rect width="22" height="22" fill="white" transform="translate(0 0.75)"/>
      </clipPath>
    </defs>
  </svg>