<svg xmlns="http://www.w3.org/2000/svg" width="22" height="23" viewBox="0 0 22 23" fill="none">
    <g clip-path="url(#clip0_2_502)">
      <mask id="mask0_2_502" style="mask-type:luminance" maskUnits="userSpaceOnUse" x="0" y="0" width="22" height="23">
        <path d="M22 0.75H0V22.75H22V0.75Z" fill="white"/>
      </mask>
      <g mask="url(#mask0_2_502)">
        <path fill-rule="evenodd" clip-rule="evenodd" d="M11 22.75C17.0751 22.75 22 17.8251 22 11.75C22 5.67487 17.0751 0.75 11 0.75C4.92487 0.75 0 5.67487 0 11.75C0 17.8251 4.92487 22.75 11 22.75Z" fill="white"/>
        <path d="M17.3287 8.72086C17.1835 8.18168 16.7584 7.75655 16.2192 7.61139C15.2341 7.3418 11.2939 7.3418 11.2939 7.3418C11.2939 7.3418 7.35375 7.3418 6.3687 7.60102C5.83988 7.74619 5.40439 8.18168 5.25922 8.72086C5 9.70591 5 11.7486 5 11.7486C5 11.7486 5 13.8016 5.25922 14.7763C5.40439 15.3155 5.82951 15.7406 6.3687 15.8858C7.36412 16.1554 11.2939 16.1554 11.2939 16.1554C11.2939 16.1554 15.2341 16.1554 16.2192 15.8962C16.7584 15.751 17.1835 15.3259 17.3287 14.7867C17.5879 13.8016 17.5879 11.759 17.5879 11.759C17.5879 11.759 17.5983 9.70591 17.3287 8.72086Z" fill="#151824"/>
        <path d="M13.3156 11.7485L10.0391 9.86133V13.6356L13.3156 11.7485Z" fill="white"/>
      </g>
    </g>
    <defs>
      <clipPath id="clip0_2_502">
        <rect width="22" height="22" fill="white" transform="translate(0 0.75)"/>
      </clipPath>
    </defs>
  </svg>