<svg xmlns="http://www.w3.org/2000/svg" width="40" height="40" viewBox="0 0 40 40" fill="none">
    <path fill-rule="evenodd" clip-rule="evenodd" d="M17.4558 28.1223V28.3499C17.5786 28.8713 17.7418 29.3823 17.9436 29.8784H5.79726C5.42058 29.8741 5.06079 29.7216 4.79595 29.4537C4.53112 29.1858 4.38259 28.8243 4.38262 28.4475V6.31747C4.38262 5.94228 4.53166 5.58246 4.79696 5.31716C5.06225 5.05187 5.42207 4.90283 5.79726 4.90283H28.0575C28.4341 4.9028 28.7956 5.05133 29.0635 5.31617C29.3314 5.581 29.484 5.94079 29.4883 6.31747V9.43942C29.4871 9.52809 29.4668 9.61547 29.4288 9.69559C29.3908 9.77573 29.336 9.84674 29.2682 9.90382C29.2003 9.96087 29.1209 10.0027 29.0354 10.0263C28.9499 10.05 28.8604 10.055 28.7729 10.0411C27.9865 9.90161 27.1761 10.0395 26.4802 10.4313C25.6768 10.8773 25.01 11.5337 24.5516 12.3301C24.0933 13.1266 23.8606 14.0329 23.8785 14.9516V15.9923C22.2892 16.6559 20.8835 17.6934 19.781 19.0167H11.6509C11.4513 18.9953 11.2495 19.0162 11.0584 19.0779C10.8674 19.1397 10.6915 19.241 10.5421 19.3751C10.3929 19.5094 10.2735 19.6735 10.1917 19.8568C10.11 20.0402 10.0677 20.2386 10.0677 20.4394C10.0677 20.6402 10.11 20.8387 10.1917 21.022C10.2735 21.2054 10.3929 21.3696 10.5421 21.5037C10.6915 21.6378 10.8674 21.7391 11.0584 21.8009C11.2495 21.8627 11.4513 21.8835 11.6509 21.8621H18.155C17.5811 23.1809 17.2822 24.6028 17.277 26.0411C17.2682 26.1601 17.2682 26.2797 17.277 26.3987C17.2613 26.5284 17.2613 26.6594 17.277 26.789C17.3088 27.2368 17.3685 27.682 17.4558 28.1223ZM19.1956 13.4069H11.2282C10.6753 13.4069 10.1712 14.0248 10.1712 14.8216C10.1712 15.6182 10.6428 16.2524 11.2282 16.2524H19.1956C19.781 16.2524 20.2363 15.602 20.2363 14.8216C20.2363 14.0411 19.781 13.4069 19.1956 13.4069ZM33.7809 20.2365C33.4787 19.9565 33.1165 19.7494 32.722 19.631C32.3273 19.5126 31.9109 19.4861 31.5045 19.5536C31.2772 19.5708 31.0489 19.5708 30.8216 19.5536C30.2525 19.5536 29.5208 19.2934 29.537 18.7568V14.2528C29.4994 13.9017 29.3334 13.5768 29.0706 13.3408C28.808 13.1048 28.4674 12.9741 28.1142 12.9741C27.7611 12.9741 27.4205 13.1048 27.1579 13.3408C26.8951 13.5768 26.7291 13.9017 26.6915 14.2528V18.0738C24.822 18.4081 23.1284 19.3862 21.9048 20.8386C20.6811 22.291 20.0044 24.1259 19.9923 26.0251V26.2853C19.9842 26.3826 19.9842 26.4806 19.9923 26.5779C20.0095 26.9061 20.053 27.2324 20.1223 27.5536V27.7162C20.3831 28.9598 20.9318 30.1251 21.7243 31.1183C22.5168 32.1117 23.5311 32.9054 24.6859 33.4358C25.8406 33.9662 27.1035 34.2185 28.3735 34.1726C29.6433 34.1266 30.8848 33.7837 31.9981 33.1712C33.1115 32.5587 34.0658 31.6937 34.7845 30.6457C35.5031 29.5978 35.9661 28.396 36.1363 27.1367C36.3064 25.8775 36.1791 24.5958 35.7644 23.3946C35.3498 22.1935 34.6592 21.1062 33.7484 20.2202L33.7809 20.2365ZM34.8709 15.1465C34.8635 15.0008 34.8033 14.8626 34.7017 14.7579C34.5999 14.6533 34.4636 14.5891 34.3181 14.5775C33.8228 14.4742 33.3115 14.4743 32.8163 14.5778C32.3211 14.6815 31.8525 14.886 31.4401 15.1791C31.1382 15.4708 30.9012 15.8229 30.7443 16.2123C30.5874 16.6017 30.5142 17.0197 30.5295 17.4392V17.6181V17.7807C30.5489 17.9997 30.6467 18.2043 30.8052 18.3567C30.9635 18.5091 31.1717 18.599 31.3913 18.6099C31.5861 18.6253 31.7819 18.6253 31.9767 18.6099C32.719 18.6419 33.4438 18.3789 33.9929 17.8782C34.3142 17.5046 34.5575 17.0704 34.7082 16.6013C34.859 16.1321 34.9143 15.6375 34.8709 15.1465Z" fill="white" />
</svg>